<svg width="183" height="24" viewBox="0 0 183 24" fill="none" xmlns="http://www.w3.org/2000/svg">
<g opacity="0.3" clip-path="url(#clip0_3099_272)">
<path d="M156.203 9.52369V23.9861H160.791V14.3445H177.571V23.9861H182.16V9.52369H156.203ZM160.267 4.83496H177.965C180.456 4.3727 182.225 2.12739 182.75 0.0141602H155.482C156.006 2.12739 157.842 4.30666 160.267 4.83496ZM142.241 23.9861C144.535 22.9955 145.781 21.2785 146.305 19.2974H125.657V0.0801986H121.004V23.9861H142.241ZM86.5909 4.76893H102.978C105.469 4.0425 107.501 2.12739 108.025 0.0801986H82.0681V14.2124H103.306V19.1653H86.6564C84.0345 19.8917 81.8059 21.6748 80.6916 23.9861H107.894V9.52369H86.6564L86.5909 4.76893ZM46.2133 4.83496H63.9113C66.4021 4.3727 68.2375 2.12739 68.6963 0.0141602H41.3628C41.8872 2.12739 43.7225 4.30666 46.2133 4.83496ZM46.2133 14.2785H63.9113C66.4021 13.8162 68.2375 11.5709 68.6963 9.45765H41.3628C41.8872 11.5709 43.7225 13.7502 46.2133 14.2785ZM46.2133 23.9861H63.9113C66.4021 23.5238 68.2375 21.2785 68.6963 19.1653H41.3628C41.8872 21.2785 43.7225 23.5238 46.2133 23.9861Z" fill="#202430"/>
<path d="M0.133057 0.0801986C0.65744 2.19343 2.49278 4.30666 4.91806 4.83496H12.3905L12.7838 4.96704V23.9201H17.4377V4.96704L17.831 4.83496H25.3035C27.7943 4.17458 29.5641 2.19343 30.0885 0.0801986V0.0141602L0.133057 0.0801986Z" fill="#202430"/>
</g>
<defs>
<clipPath id="clip0_3099_272">
<rect width="182.682" height="24" fill="white" transform="translate(0.133057)"/>
</clipPath>
</defs>
</svg>
